# xmcd
#
# Track frame offsets: 
#        150
#        17677
#        29497
#        47386
#        64072
#        79735
#        93645
#        106606
#        119602
#        134585
#        148458
#        161425
#        179078
#        194855
#        208432
#
# Disc length: 3069 seconds
#
# Revision: 0
# Processed by: cddbd v1.5.2PL0 Copyright (c) Steve Scherf et al.
# Submitted via: ExactAudioCopy v0.99pb5
#
DISCID=e80bfb0f
DTITLE=The Derailers - The Derailers Live from Texas
DYEAR=2010
DGENRE=Country
TTITLE0=She Left Me Cold
TTITLE1=Guaranteed To Satisfy
TTITLE2=Knee Deep In The Blues
TTITLE3=Lies, Lies, Lies
TTITLE4=I See My Baby
TTITLE5=California Angel
TTITLE6=Who's Gonna Mow Your Grass
TTITLE7=You're My Girl
TTITLE8=Just To Spend The Night With You
TTITLE9=Cold Beer, Hot Women And Cool Country Music
TTITLE10=I'm Your Man
TTITLE11=Hey Valerie
TTITLE12=Alone With You
TTITLE13=Come On
TTITLE14=Scratch My Itch
EXTD=
EXTT0=
EXTT1=
EXTT2=
EXTT3=
EXTT4=
EXTT5=
EXTT6=
EXTT7=
EXTT8=
EXTT9=
EXTT10=
EXTT11=
EXTT12=
EXTT13=
EXTT14=
PLAYORDER=
